<?xml version="1.0" encoding="utf-8"?>
<svg xmlns="http://www.w3.org/2000/svg" xmlns:svg="http://www.w3.org/2000/svg" version="1.1" viewBox="0 0 1400 540">
	<title>The titlepage for the Standard Ebooks edition of The Sketch-Book of Geoffrey Crayon, Gent., by Washington Irving</title>
	<g aria-label="THE SKETCH-BOOK OF">
		<path d="m 112.01315,68.245613 h 18.33918 V 130 h 17.59064 V 68.245613 h 18.33919 V 52.807016 h -54.26901 z"/>
		<path d="m 195.20759,99.029239 h 24.88889 V 130 h 17.59065 V 52.807016 H 220.09648 V 83.590642 H 195.20759 V 52.807016 H 177.61695 V 130 h 17.59064 z"/>
		<path d="M 298.05263,52.807016 H 253.88888 V 130 h 44.16375 v -15.4386 h -26.5731 V 99.029239 h 25.45029 V 83.590642 H 271.47953 V 68.245613 h 26.5731 z"/>
		<path d="m 370.36696,51.403507 c -12.44445,0 -25.16959,9.169591 -25.16959,23.578948 0,8.046784 5.4269,15.251462 14.69006,19.836258 9.16959,4.584795 17.40351,7.111107 17.40351,12.725147 0,7.20468 -7.29825,7.57895 -11.13451,7.57895 -8.60818,0 -18.90058,-8.70176 -18.90058,-8.70176 l -8.79532,14.78363 c 0,0 10.94736,10.19883 29.00584,10.19883 15.06433,0 29.09942,-6.45614 29.09942,-24.88889 0,-10.105264 -9.45029,-17.40351 -18.05848,-21.052632 -8.79532,-3.742691 -16.09357,-6.83041 -16.09357,-11.134504 0,-4.210526 3.18129,-6.923976 9.16959,-6.923976 7.95322,0 15.62573,5.333333 15.62573,5.333333 l 7.11112,-14.035088 c 0,0 -9.91813,-7.298246 -23.95322,-7.298246 z"/>
		<path d="M 480.05702,130 444.12719,89.391812 475.19152,52.807016 H 453.85818 L 427.37865,84.33918 V 52.807016 H 409.78801 V 130 h 17.59064 V 97.251461 L 455.8231,130 Z"/>
		<path d="M 532.59943,52.807016 H 488.43568 V 130 h 44.16375 v -15.4386 h -26.5731 V 99.029239 h 25.45029 V 83.590642 H 506.02633 V 68.245613 h 26.5731 z"/>
		<path d="m 542.84649,68.245613 h 18.33918 V 130 h 17.59065 V 68.245613 H 597.1155 V 52.807016 h -54.26901 z"/>
		<path d="m 646.60234,114.09357 c -17.68421,0 -25.45029,-12.35088 -25.45029,-22.736846 0,-10.292397 7.76608,-22.643275 25.45029,-22.643275 8.98246,0 15.1579,4.77193 15.1579,4.77193 l 7.48538,-14.97076 c 0,0 -8.60819,-7.111112 -25.35673,-7.111112 -21.89473,0 -41.82456,17.964913 -41.82456,40.140352 0,22.081871 20.02339,39.859651 41.82456,39.859651 16.74854,0 25.35673,-7.11111 25.35673,-7.11111 l -7.48538,-14.97076 c 0,0 -6.17544,4.77193 -15.1579,4.77193 z"/>
		<path d="m 698.65789,99.029239 h 24.88889 V 130 h 17.59064 V 52.807016 H 723.54678 V 83.590642 H 698.65789 V 52.807016 H 681.06724 V 130 h 17.59065 z"/>
		<path d="m 757.33922,95.754385 v 14.315795 h 30.12865 V 95.754385 Z"/>
		<path d="M 803.64036,52.807016 V 130 h 29.28655 c 16,0 25.26316,-8.79532 25.26316,-21.52047 0,-12.444443 -6.83041,-17.777776 -16.46783,-19.461987 6.5497,-3.368421 9.63742,-9.450292 9.63742,-16.561404 0,-14.690058 -10.47953,-19.649123 -23.76608,-19.649123 z m 17.59065,30.222223 V 66.374268 h 1.40351 c 7.67251,0 11.6959,2.339181 11.6959,7.859649 0,6.456141 -4.11696,8.795322 -11.6959,8.795322 z m 0,33.403511 V 98.187134 h 5.52047 c 8.32748,0 12.91228,2.526316 12.91228,9.637426 0,6.08187 -4.5848,8.60819 -12.91228,8.60819 z"/>
		<path d="m 867.49564,91.356724 c 0,22.549706 16.09356,40.046786 38.92397,40.046786 22.17544,0 38.83041,-17.49708 38.83041,-40.046786 0,-22.549708 -17.40351,-39.953217 -38.83041,-39.953217 -21.23976,0 -38.92397,17.403509 -38.92397,39.953217 z m 18.99415,0 c 0,-11.508772 6.36257,-23.017544 19.92982,-23.017544 13.66082,0 19.83626,11.508772 19.83626,23.017544 0,11.508776 -5.80117,23.017546 -19.83626,23.017546 -14.40935,0 -19.92982,-11.50877 -19.92982,-23.017546 z"/>
		<path d="m 954.54971,91.356724 c 0,22.549706 16.09357,40.046786 38.92398,40.046786 22.17541,0 38.83041,-17.49708 38.83041,-40.046786 0,-22.549708 -17.4035,-39.953217 -38.83041,-39.953217 -21.23977,0 -38.92398,17.403509 -38.92398,39.953217 z m 18.99416,0 c 0,-11.508772 6.36257,-23.017544 19.92982,-23.017544 13.66081,0 19.83621,11.508772 19.83621,23.017544 0,11.508776 -5.8011,23.017546 -19.83621,23.017546 -14.40936,0 -19.92982,-11.50877 -19.92982,-23.017546 z"/>
		<path d="M 1115.3348,130 1079.405,89.391812 1110.4693,52.807016 H 1089.136 L 1062.6564,84.33918 V 52.807016 h -17.5906 V 130 h 17.5906 V 97.251461 L 1091.1009,130 Z"/>
		<path d="m 1150.8362,91.356724 c 0,22.549706 16.0936,40.046786 38.924,40.046786 22.1754,0 38.8304,-17.49708 38.8304,-40.046786 0,-22.549708 -17.4035,-39.953217 -38.8304,-39.953217 -21.2398,0 -38.924,17.403509 -38.924,39.953217 z m 18.9942,0 c 0,-11.508772 6.3625,-23.017544 19.9298,-23.017544 13.6608,0 19.8362,11.508772 19.8362,23.017544 0,11.508776 -5.8011,23.017546 -19.8362,23.017546 -14.4094,0 -19.9298,-11.50877 -19.9298,-23.017546 z"/>
		<path d="m 1285.984,52.807016 h -44.6316 V 130 h 17.5906 V 99.029239 h 24.9825 V 83.590642 H 1258.943 V 68.245613 h 27.041 z"/>
	</g>
	<g aria-label="GEOFFREY CRAYON,">
		<path d="m 239.83406,186.77193 h -35.64913 v 13.56725 h 17.77778 c 0,9.45029 -8.32748,14.87719 -16.74854,14.87719 -10.8538,0 -19.64912,-10.66666 -19.64912,-23.76608 0,-13.38012 8.79532,-24.14035 19.64912,-24.14035 6.83041,0 12.72515,2.71345 17.21638,9.91813 l 11.50877,-12.63158 c -6.73684,-8.14035 -16.18713,-13.19298 -29.75439,-13.19298 -21.7076,0 -37.61403,17.87134 -37.61403,40.04678 0,22.08187 16.8421,39.95322 37.61403,39.95322 15.1579,0 31.4386,-8.32749 35.64913,-27.88304 z"/>
		<path d="M 296.68201,152.80702 H 252.51827 V 230 h 44.16374 v -15.4386 h -26.5731 v -15.53216 h 25.45029 v -15.4386 h -25.45029 v -15.34503 h 26.5731 z"/>
		<path d="m 308.3326,191.35672 c 0,22.54971 16.09357,40.04679 38.92398,40.04679 22.17544,0 38.83041,-17.49708 38.83041,-40.04679 0,-22.5497 -17.40351,-39.95321 -38.83041,-39.95321 -21.23977,0 -38.92398,17.40351 -38.92398,39.95321 z m 18.99415,0 c 0,-11.50877 6.36258,-23.01754 19.92983,-23.01754 13.66082,0 19.83626,11.50877 19.83626,23.01754 0,11.50878 -5.80117,23.01755 -19.83626,23.01755 -14.40936,0 -19.92983,-11.50877 -19.92983,-23.01755 z"/>
		<path d="M 443.48026,152.80702 H 398.84868 V 230 h 17.59065 v -30.97076 h 24.98245 v -15.4386 h -24.98245 v -15.34503 h 27.04093 z"/>
		<path d="M 501.47733,152.80702 H 456.84575 V 230 h 17.59065 v -30.97076 h 24.98245 v -15.4386 H 474.4364 v -15.34503 h 27.04093 z"/>
		<path d="M 514.84282,152.80702 V 230 h 17.59065 V 199.49708 L 556.01241,230 h 22.36258 l -26.5731,-31.90643 c 9.45029,-2.99416 15.81286,-10.76024 15.81286,-22.36258 0,-15.15789 -10.8538,-22.92397 -25.16959,-22.92397 z m 17.59065,34.24561 V 166.8421 h 2.05848 c 6.64327,0 14.59649,0.46784 14.59649,10.10527 0,9.63742 -7.95322,10.10526 -14.59649,10.10526 z"/>
		<path d="M 631.07529,152.80702 H 586.91155 V 230 h 44.16374 v -15.4386 h -26.5731 v -15.53216 h 25.45029 v -15.4386 h -25.45029 v -15.34503 h 26.5731 z"/>
		<path d="m 637.7668,152.80702 28.44445,42.5731 V 230 h 17.59064 v -34.61988 l 28.44445,-42.5731 h -21.1462 L 675.00657,177.50877 658.913,152.80702 Z"/>
		<path d="m 788.82095,214.09357 c -17.68421,0 -25.4503,-12.35088 -25.4503,-22.73685 0,-10.29239 7.76609,-22.64327 25.4503,-22.64327 8.98245,0 15.15789,4.77193 15.15789,4.77193 l 7.48538,-14.97076 c 0,0 -8.60819,-7.11111 -25.35672,-7.11111 -21.89474,0 -41.82457,17.96491 -41.82457,40.14035 0,22.08187 20.0234,39.85965 41.82457,39.85965 16.74853,0 25.35672,-7.11111 25.35672,-7.11111 l -7.48538,-14.97076 c 0,0 -6.17544,4.77193 -15.15789,4.77193 z"/>
		<path d="M 823.28582,152.80702 V 230 h 17.59064 V 199.49708 L 864.45541,230 h 22.36257 l -26.5731,-31.90643 c 9.45029,-2.99416 15.81287,-10.76024 15.81287,-22.36258 0,-15.15789 -10.8538,-22.92397 -25.16959,-22.92397 z m 17.59064,34.24561 V 166.8421 h 2.05848 c 6.64327,0 14.59649,0.46784 14.59649,10.10527 0,9.63742 -7.95322,10.10526 -14.59649,10.10526 z"/>
		<path d="m 934.55922,152.80702 h -16.2807 L 887.12062,230 h 18.90059 l 5.7076,-15.4386 h 29.38012 L 946.81653,230 h 18.90059 z m 0.5614,46.31579 h -17.40351 l 8.60819,-22.45614 h 0.18714 z"/>
		<path d="m 956.80922,152.80702 28.44445,42.5731 V 230 h 17.59063 v -34.61988 l 28.4445,-42.5731 h -21.1462 l -16.09361,24.70175 -16.09357,-24.70175 z"/>
		<path d="m 1035.6645,191.35672 c 0,22.54971 16.0936,40.04679 38.924,40.04679 22.1754,0 38.8304,-17.49708 38.8304,-40.04679 0,-22.5497 -17.4035,-39.95321 -38.8304,-39.95321 -21.2398,0 -38.924,17.40351 -38.924,39.95321 z m 18.9942,0 c 0,-11.50877 6.3626,-23.01754 19.9298,-23.01754 13.6608,0 19.8363,11.50877 19.8363,23.01754 0,11.50878 -5.8012,23.01755 -19.8363,23.01755 -14.4094,0 -19.9298,-11.50877 -19.9298,-23.01755 z"/>
		<path d="m 1143.7712,182.09357 h 0.1872 L 1174.6484,230 h 17.5907 v -77.19298 h -17.5907 v 47.90643 h -0.1871 l -30.6901,-47.90643 h -17.5906 V 230 h 17.5906 z"/>
		<path d="m 1219.1499,209.97661 c -5.8948,0 -10.6667,4.77193 -10.6667,10.76023 0,4.95907 3.462,8.70176 8.0468,9.82456 -1.4971,7.76609 -7.1111,13.09942 -7.1111,13.09942 l 4.7719,3.92982 c 7.6725,-6.36257 15.7193,-15.53216 15.7193,-26.8538 0,-5.9883 -4.7719,-10.76023 -10.7602,-10.76023 z"/>
	</g>
	<g aria-label="GENT.">
		<path d="m 621.9576,286.77193 h -35.64912 v 13.56725 h 17.77778 c 0,9.45029 -8.32749,14.87719 -16.74854,14.87719 -10.8538,0 -19.64913,-10.66666 -19.64913,-23.76608 0,-13.38012 8.79533,-24.14035 19.64913,-24.14035 6.83041,0 12.72514,2.71345 17.21637,9.91813 l 11.50877,-12.63158 c -6.73684,-8.14035 -16.18713,-13.19298 -29.75438,-13.19298 -21.70761,0 -37.61404,17.87134 -37.61404,40.04678 0,22.08187 16.84211,39.95322 37.61404,39.95322 15.15789,0 31.43859,-8.32749 35.64912,-27.88304 z"/>
		<path d="M 678.80556,252.80702 H 634.64181 V 330 h 44.16375 v -15.4386 h -26.5731 v -15.53216 h 25.45029 v -15.4386 h -25.45029 v -15.34503 h 26.5731 z"/>
		<path d="m 711.50878,282.09357 h 0.18713 L 742.38597,330 h 17.59064 v -77.19298 h -17.59064 v 47.90643 h -0.18713 L 711.50878,252.80702 H 693.91813 V 330 h 17.59065 z"/>
		<path d="m 766.78655,268.24561 h 18.33919 V 330 h 17.59064 v -61.75439 h 18.33918 v -15.43859 h -54.26901 z"/>
		<path d="m 837.02631,309.97661 c -5.89473,0 -10.66666,4.77193 -10.66666,10.76023 0,5.89474 4.77193,10.66667 10.66666,10.66667 5.98831,0 10.76024,-4.77193 10.76024,-10.66667 0,-5.9883 -4.77193,-10.76023 -10.76024,-10.76023 z"/>
	</g>
	<g aria-label="WASHINGTON IRVING">
		<path d="m 306.76755,490 h 14.59649 l 16.49123,-57.89474 h -14.59649 l -9.89474,39.7193 h -0.35088 l -10.52631,-39.7193 h -9.96492 l -10.52631,39.7193 h -0.35088 L 271.75,432.10526 H 257.08334 L 273.57457,490 h 14.66666 l 9.26316,-32.49123 z"/>
		<path d="M 368.98136,432.10526 H 356.77084 L 333.40242,490 h 14.17544 l 4.2807,-11.57895 h 22.03509 L 378.17435,490 h 14.17544 z m 0.42106,34.73685 H 356.34979 L 362.80593,450 h 0.14035 z"/>
		<path d="m 419.5022,431.05263 c -9.33333,0 -18.87719,6.8772 -18.87719,17.68421 0,6.03509 4.07017,11.4386 11.01754,14.8772 6.87719,3.43859 13.05263,5.33333 13.05263,9.54385 0,5.40351 -5.47368,5.68422 -8.35087,5.68422 -6.45614,0 -14.17544,-6.52632 -14.17544,-6.52632 l -6.59649,11.08772 c 0,0 8.21052,7.64912 21.75438,7.64912 11.29825,0 21.82456,-4.8421 21.82456,-18.66666 0,-7.57895 -7.08772,-13.05264 -13.54386,-15.78948 -6.59649,-2.80702 -12.07017,-5.12281 -12.07017,-8.35088 0,-3.15789 2.38596,-5.19298 6.87719,-5.19298 5.96491,0 11.7193,4 11.7193,4 l 5.33333,-10.52631 c 0,0 -7.43859,-5.47369 -17.96491,-5.47369 z"/>
		<path d="m 463.51097,466.77193 h 18.66667 V 490 h 13.19298 v -57.89474 h -13.19298 v 23.08772 H 463.51097 V 432.10526 H 450.31799 V 490 h 13.19298 z"/>
		<path d="M 521.96492,432.10526 H 508.77194 V 490 h 13.19298 z"/>
		<path d="m 548.62062,454.07018 h 0.14035 L 571.77852,490 h 13.19298 v -57.89474 h -13.19298 v 35.92983 h -0.14035 L 548.62062,432.10526 H 535.42764 V 490 h 13.19298 z"/>
		<path d="m 650.75548,457.57895 h -26.73684 v 10.17544 h 13.33333 c 0,7.08772 -6.24562,11.15789 -12.5614,11.15789 -8.14036,0 -14.73685,-8 -14.73685,-17.82456 0,-10.03509 6.59649,-18.10526 14.73685,-18.10526 5.1228,0 9.54385,2.03508 12.91228,7.43859 l 8.63157,-9.47368 c -5.05263,-6.10526 -12.14035,-9.89474 -22.31578,-9.89474 -16.28071,0 -28.21053,13.40351 -28.21053,30.03509 0,16.5614 12.63158,29.96491 28.21053,29.96491 11.36842,0 23.57894,-6.24561 26.73684,-20.91228 z"/>
		<path d="m 654.44298,443.68421 h 13.75438 V 490 h 13.19299 v -46.31579 h 13.75438 v -11.57895 h -40.70175 z"/>
		<path d="m 700.10636,461.01754 c 0,16.91228 12.07017,30.03509 29.19298,30.03509 16.63158,0 29.12281,-13.12281 29.12281,-30.03509 0,-16.91228 -13.05263,-29.96491 -29.12281,-29.96491 -15.92982,0 -29.19298,13.05263 -29.19298,29.96491 z m 14.24561,0 c 0,-8.63157 4.77193,-17.26315 14.94737,-17.26315 10.24561,0 14.87719,8.63158 14.87719,17.26315 0,8.63158 -4.35087,17.26316 -14.87719,17.26316 -10.80702,0 -14.94737,-8.63158 -14.94737,-17.26316 z"/>
		<path d="m 782.43639,454.07018 h 0.14035 L 805.59428,490 h 13.19299 v -57.89474 h -13.19299 v 35.92983 h -0.14035 L 782.43639,432.10526 H 769.24341 V 490 h 13.19298 z"/>
		<path d="M 869.60198,432.10526 H 856.409 V 490 h 13.19298 z"/>
		<path d="M 883.0647,432.10526 V 490 h 13.19298 V 467.12281 L 913.94189,490 h 16.77193 l -19.92983,-23.92982 c 7.08772,-2.24562 11.85965,-8.07018 11.85965,-16.77193 0,-11.36842 -8.14035,-17.19299 -18.87719,-17.19299 z m 13.19298,25.68421 v -15.15789 h 1.54386 c 4.98245,0 10.94737,0.35088 10.94737,7.57895 0,7.22807 -5.96492,7.57894 -10.94737,7.57894 z"/>
		<path d="m 956.47147,490 h 10.38597 l 24.2807,-57.89474 h -14.87719 l -14.5965,38.03509 -14.59649,-38.03509 h -14.87719 z"/>
		<path d="M 1011.5209,432.10526 H 998.32788 V 490 h 13.19302 z"/>
		<path d="m 1038.1766,454.07018 h 0.1403 L 1061.3345,490 h 13.1929 v -57.89474 h -13.1929 v 35.92983 h -0.1404 l -23.0175,-35.92983 h -13.193 V 490 h 13.193 z"/>
		<path d="m 1140.3114,457.57895 h -26.7369 v 10.17544 h 13.3334 c 0,7.08772 -6.2456,11.15789 -12.5614,11.15789 -8.1404,0 -14.7369,-8 -14.7369,-17.82456 0,-10.03509 6.5965,-18.10526 14.7369,-18.10526 5.1228,0 9.5438,2.03508 12.9123,7.43859 l 8.6315,-9.47368 c -5.0526,-6.10526 -12.1403,-9.89474 -22.3158,-9.89474 -16.2807,0 -28.2105,13.40351 -28.2105,30.03509 0,16.5614 12.6316,29.96491 28.2105,29.96491 11.3685,0 23.579,-6.24561 26.7369,-20.91228 z"/>
	</g>
</svg>
